<?xml version="1.0" encoding="utf-8"?>
<!-- Generator: Adobe Illustrator 27.1.0, SVG Export Plug-In . SVG Version: 6.00 Build 0)  -->
<svg version="1.1" id="Capa_1" xmlns="http://www.w3.org/2000/svg" xmlns:xlink="http://www.w3.org/1999/xlink" x="0px" y="0px"
	 viewBox="0 0 1366 768" style="enable-background:new 0 0 1366 768;" xml:space="preserve">
<style type="text/css">
	.st0{fill:#5D8F1F;}
	.st1{fill:#FFFFFF;}
	.st2{fill:#BDE14E;}
</style>
<g>
	<rect x="560.5" y="230.5" class="st0" width="260" height="260"/>
	<path class="st1" d="M578.2,380.56c0.69-7.07,0.82-13.49,2-19.72c6.69-35.34,43.59-60.66,78.71-54.11c1.39,0.26,3.54,1.86,3.6,2.93
		c0.33,6.6,0.17,13.23,0.17,19.7c-5.97-0.32-11.42-1.02-16.83-0.81c-18.28,0.72-35.18,12.92-41.28,29.11
		c-7.31,19.38-3.66,36.63,11.14,50.72c14.44,13.75,31.97,17.04,50.47,9.63c19.37-7.76,29.46-22.83,29.71-43.8
		c0.27-23.15,0.37-46.32-0.09-69.47c-0.77-39.47,25.22-61.25,57.63-68.19c4.68-1,9.46-1.52,14.73-2.34c0,7.86,0,15.06,0,22.49
		c-4.95,0.51-9.77,0.74-14.5,1.55c-11.48,1.98-20.2,8.37-26.44,17.99c-6.29,9.69-9.74,20.34-9.72,32.03
		c0.05,21.66-0.02,43.32-0.01,64.98c0.02,44.37-39.98,76.82-83.41,67.62c-25.89-5.49-43.86-21.07-52.31-45.58"/>
	<path class="st1" d="M667.14,262.66c7.35,0,13.97,0,21.42,0c0,1.97,0,3.88,0,5.79c0.07,35.83,0.12,71.65,0.21,107.48
		c0.04,16.21-9.6,30.3-24.45,36.87c-17.99,7.96-33.99,3.67-47.29-8.99c-5.16-4.91-7.95-13.42-9.55-20.79
		c-5.21-23.95,13.32-46.76,37.9-47.7c4.16-0.16,8.34,0.05,12.49-0.17c3.53-0.19,4.7,1.32,4.54,4.71c-0.2,4.32-0.18,8.67-0.01,12.99
		c0.13,3.09-1.15,4.15-4.12,4.01c-3.16-0.16-6.33-0.05-9.5,0.01c-11.07,0.2-20,8.63-20.03,18.87c-0.03,9.93,8.88,18.63,19.1,18.67
		c11.04,0.04,19.3-8.24,19.32-19.76c0.06-32-0.02-63.99-0.05-95.99C667.14,273.53,667.14,268.39,667.14,262.66z"/>
	<path class="st1" d="M745.38,384.28c0,8.15-0.15,16.31,0.07,24.46c0.1,3.49-1.15,4.87-4.55,4.81c-4.49-0.08-8.99-0.03-13.48,0.05
		c-2.46,0.04-3.52-0.83-3.53-3.5c-0.1-24.3-0.3-48.6-0.56-72.89c-0.03-3.14,0.97-4.49,4.28-4.46c12.48,0.12,24.97,0.13,37.45-0.02
		c3.55-0.04,4.68,1.38,4.54,4.73c-0.18,4.32-0.17,8.66-0.01,12.98c0.11,3.01-1.04,4.2-4.05,4.13c-5.16-0.11-10.33,0.19-15.47-0.04
		c-3.64-0.16-5.03,0.98-4.92,4.78c0.24,8.32,0.07,16.64,0.07,24.96C745.27,384.28,745.33,384.28,745.38,384.28z"/>
	<path class="st1" d="M768.73,281.11c-17.32,4.89-23.3,10.96-23.84,24.58c6.28,0,12.57,0.16,18.84-0.06
		c3.86-0.13,5.34,1.14,5.12,5.15c-0.31,5.77-0.08,11.58-0.08,17.7c-15.1,0-29.68,0-44.85,0c-0.13-1.76-0.38-3.51-0.38-5.27
		c0.02-6.5,0.25-12.99,0.18-19.49c-0.27-23.96,16.43-36.72,35.62-40.15c11.26-2.01,9.25-1.03,9.37,7.76
		C768.76,274.63,768.73,277.93,768.73,281.11z"/>
	<g>
		<path class="st2" d="M560,423c5.46,2.79,10.94,5.55,16.39,8.37c39.65,20.53,81.88,27.83,126.21,25.1
			c21.09-1.3,41.6-5.21,61.39-12.41c15.7-5.71,30.56-13.17,43.46-24.06c0.96-0.81,1.99-1.53,2.99-2.3c0.39,0.44,0.77,0.89,1.16,1.33
			c-11.74,10.43-23.15,21.25-35.28,31.2c-25.8,21.15-56.71,30.95-88.51,38.51c-1.61,0.38-3.21,0.84-4.81,1.27
			c-40.89,0-81.78,0-123,0C560,467.67,560,445.33,560,423z"/>
		<path class="st2" d="M704.35,475.3c12.66-4.45,25.53-8.37,37.89-13.52c8.55-3.57,16.38-8.84,24.53-13.35
			c-0.21-0.37-0.42-0.75-0.63-1.12c-0.69,0.36-1.37,0.74-2.08,1.08c-14.03,6.78-28,13.7-42.12,20.28c-5.65,2.63-11.65,4.5-17.52,6.7
			c-0.82-0.06-1.67-0.29-2.45-0.16c-15.47,2.69-30.93,5.42-43.86,7.7C672.08,482.35,688.5,480.7,704.35,475.3z"/>
		<path class="st2" d="M673.75,487.16c44.28-4.58,83.03-21.79,115.91-52.06C755.71,462.86,717.09,480.13,673.75,487.16z"/>
	</g>
	<path class="st2" d="M724,489c11.24-4.09,22.61-7.86,33.69-12.34c21.83-8.82,42.52-19.9,62.31-32.66c0,12.33,0,24.67,0,37
		c-8,2.67-16,5.33-24,8C772,489,748,489,724,489z"/>
	<path class="st2" d="M821,262c-5.49-5.68-10.86-11.49-16.52-16.99c-5.33-5.17-10.97-10.02-16.48-15.01c11,0,22,0,33,0
		C821,240.67,821,251.33,821,262z"/>
</g>
</svg>
