<?xml version="1.0" encoding="utf-8"?>
<!-- Generator: Adobe Illustrator 27.1.0, SVG Export Plug-In . SVG Version: 6.00 Build 0)  -->
<svg version="1.1" id="Capa_1" xmlns="http://www.w3.org/2000/svg" xmlns:xlink="http://www.w3.org/1999/xlink" x="0px" y="0px"
	 viewBox="0 0 247 100" style="enable-background:new 0 0 247 100;" xml:space="preserve">
<style type="text/css">
	.st0{fill:#2A8804;}
	.st1{fill:#FFFFFF;}
</style>
<g>
	<g>
		<rect x="0" y="-1" class="st0" width="248" height="103"/>
	</g>
	<g>
		<path class="st1" d="M62.86,58.17H52.29v-3.43c-1.81,1.48-3.51,2.58-5.09,3.28s-3.4,1.05-5.47,1.05c-4,0-7.2-1.54-9.6-4.63
			c-2.4-3.09-3.6-7.25-3.6-12.48c0-2.79,0.4-5.27,1.21-7.43c0.81-2.16,1.92-4.01,3.32-5.55c1.33-1.46,2.94-2.6,4.83-3.41
			c1.89-0.81,3.78-1.22,5.68-1.22c1.97,0,3.58,0.21,4.84,0.63c1.26,0.42,2.55,0.95,3.88,1.6v-14h10.58V58.17z M52.29,49.11V32.94
			c-0.74-0.31-1.52-0.54-2.34-0.67c-0.82-0.14-1.57-0.21-2.25-0.21c-2.77,0-4.84,0.87-6.23,2.6c-1.38,1.73-2.08,4.13-2.08,7.2
			c0,3.23,0.56,5.57,1.67,7.03c1.11,1.46,2.89,2.19,5.35,2.19c0.96,0,1.97-0.18,3.04-0.54C50.52,50.17,51.47,49.7,52.29,49.11z"/>
		<path class="st1" d="M83.69,20.58H72.53v-8h11.16V20.58z M83.4,58.17H72.82v-32.9H83.4V58.17z"/>
		<path class="st1" d="M114.66,20.32h-0.79c-0.47-0.14-1.08-0.29-1.83-0.47s-1.55-0.26-2.41-0.26c-2.06,0-3.46,0.37-4.19,1.11
			c-0.73,0.74-1.1,2.18-1.1,4.31v0.26h8.12v7.15h-7.76v25.75H94.12V32.42h-4.51v-7.15h4.51v-0.91c0-4.02,1.07-7.04,3.21-9.05
			c2.14-2.01,5.38-3.02,9.71-3.02c1.56,0,2.98,0.05,4.25,0.16c1.27,0.11,2.39,0.25,3.37,0.42V20.32z"/>
		<path class="st1" d="M151.07,43.67h-24.14c0.16,2.58,1.14,4.55,2.94,5.92c1.81,1.37,4.47,2.05,7.98,2.05c2.23,0,4.38-0.4,6.47-1.2
			c2.09-0.8,3.74-1.66,4.95-2.58h1.17v8.47c-2.38,0.96-4.63,1.65-6.74,2.08s-4.44,0.64-7,0.64c-6.6,0-11.66-1.48-15.18-4.45
			s-5.27-7.2-5.27-12.69c0-5.43,1.67-9.73,5-12.91c3.33-3.17,7.9-4.76,13.7-4.76c5.35,0,9.38,1.35,12.07,4.06
			c2.7,2.71,4.04,6.6,4.04,11.67V43.67z M140.59,37.48c-0.06-2.21-0.61-3.87-1.64-4.98c-1.04-1.11-2.65-1.67-4.83-1.67
			c-2.03,0-3.7,0.53-5.01,1.58c-1.31,1.05-2.04,2.74-2.2,5.07H140.59z"/>
		<path class="st1" d="M187.11,47.74c0,3.4-1.52,6.14-4.57,8.22s-7.22,3.12-12.51,3.12c-2.93,0-5.59-0.27-7.97-0.82
			s-4.3-1.15-5.74-1.82v-8.67h0.97c0.53,0.37,1.14,0.78,1.83,1.22s1.67,0.91,2.94,1.42c1.09,0.45,2.33,0.83,3.72,1.16
			s2.87,0.48,4.45,0.48c2.07,0,3.6-0.23,4.6-0.69s1.49-1.14,1.49-2.04c0-0.8-0.29-1.38-0.88-1.74c-0.59-0.36-1.7-0.71-3.34-1.04
			c-0.78-0.18-1.84-0.37-3.18-0.57s-2.55-0.45-3.65-0.75c-2.99-0.78-5.21-2-6.65-3.65c-1.45-1.65-2.17-3.71-2.17-6.17
			c0-3.16,1.5-5.8,4.5-7.9c3-2.1,7.09-3.15,12.29-3.15c2.46,0,4.82,0.25,7.08,0.75s4.02,1.03,5.29,1.6v8.32h-0.91
			c-1.56-1.07-3.34-1.95-5.35-2.62s-4.03-1.01-6.08-1.01c-1.7,0-3.13,0.23-4.29,0.7s-1.74,1.13-1.74,1.99
			c0,0.78,0.26,1.38,0.79,1.79s1.77,0.82,3.72,1.23c1.07,0.22,2.23,0.42,3.47,0.63s2.49,0.46,3.74,0.78
			c2.77,0.72,4.82,1.86,6.15,3.41S187.11,45.41,187.11,47.74z"/>
		<path class="st1" d="M214.03,54.68c-0.57,0.43-1.27,0.95-2.11,1.55s-1.63,1.08-2.37,1.44c-1.04,0.47-2.11,0.82-3.22,1.04
			s-2.33,0.34-3.66,0.34c-3.12,0-5.74-0.97-7.85-2.9s-3.16-4.4-3.16-7.41c0-2.4,0.54-4.37,1.61-5.89s2.6-2.72,4.57-3.6
			c1.95-0.88,4.38-1.5,7.27-1.88c2.89-0.37,5.89-0.64,8.99-0.82v-0.18c0-1.82-0.74-3.07-2.23-3.76c-1.48-0.69-3.67-1.04-6.56-1.04
			c-1.74,0-3.59,0.31-5.57,0.92s-3.39,1.09-4.25,1.42h-0.97v-7.94c1.11-0.29,2.92-0.64,5.43-1.04c2.51-0.4,5.02-0.6,7.54-0.6
			c6,0,10.33,0.92,12.99,2.77s4,4.74,4,8.69v22.38h-10.46V54.68z M214.03,49.56v-6.83c-1.43,0.12-2.97,0.28-4.63,0.48
			s-2.92,0.44-3.78,0.72c-1.05,0.33-1.86,0.81-2.42,1.45c-0.56,0.63-0.83,1.46-0.83,2.5c0,0.68,0.06,1.24,0.18,1.67
			s0.41,0.84,0.88,1.23c0.45,0.39,0.99,0.68,1.61,0.86s1.6,0.28,2.93,0.28c1.05,0,2.12-0.21,3.21-0.64
			C212.26,50.83,213.21,50.26,214.03,49.56z"/>
	</g>
	<g>
		<path class="st1" d="M55.89,82.42h-6.2v-10.5h2.29v8.64h3.91V82.42z"/>
		<path class="st1" d="M63.55,82.42h-2.13V81.3h-0.03c-0.25,0.43-0.57,0.75-0.96,0.97c-0.39,0.22-0.82,0.33-1.31,0.33
			c-0.68,0-1.26-0.21-1.73-0.62s-0.7-0.98-0.7-1.7c0-0.72,0.23-1.3,0.7-1.74c0.47-0.44,1.19-0.73,2.17-0.86l1.88-0.26v-0.15
			c0-0.39-0.12-0.69-0.37-0.89s-0.58-0.3-1.01-0.3c-0.32,0-0.67,0.05-1.05,0.17c-0.38,0.11-0.76,0.28-1.15,0.52l-0.79-1.33
			c0.5-0.31,1.01-0.54,1.53-0.69c0.52-0.15,1.07-0.22,1.67-0.22c1.11,0,1.94,0.27,2.48,0.8c0.54,0.54,0.81,1.35,0.81,2.42V82.42z
			 M61.44,79.29v-0.54l-1.46,0.19c-0.41,0.05-0.72,0.17-0.92,0.35c-0.2,0.18-0.3,0.43-0.3,0.74c0,0.28,0.1,0.52,0.29,0.7
			s0.46,0.27,0.79,0.27c0.47,0,0.85-0.16,1.15-0.48C61.29,80.19,61.44,79.79,61.44,79.29z"/>
		<path class="st1" d="M77.82,81.87c-0.55,0.26-1.09,0.45-1.61,0.56c-0.52,0.12-1.09,0.17-1.69,0.17c-1.64,0-2.92-0.46-3.86-1.38
			c-0.94-0.92-1.4-2.23-1.4-3.93c0-1.6,0.51-2.93,1.53-3.98c1.02-1.05,2.37-1.58,4.04-1.58c0.57,0,1.08,0.04,1.53,0.13
			c0.45,0.09,0.91,0.22,1.38,0.41l-0.7,1.85c-0.35-0.15-0.7-0.25-1.04-0.31s-0.7-0.1-1.09-0.1c-0.88,0-1.64,0.31-2.28,0.92
			c-0.64,0.62-0.96,1.45-0.96,2.5c0,1.08,0.28,1.92,0.84,2.53c0.56,0.61,1.32,0.92,2.3,0.92c0.28,0,0.61-0.04,0.99-0.13
			s0.78-0.23,1.18-0.43L77.82,81.87z"/>
		<path class="st1" d="M85.58,82.42h-2.13V81.3h-0.03c-0.25,0.43-0.57,0.75-0.96,0.97c-0.39,0.22-0.82,0.33-1.31,0.33
			c-0.68,0-1.26-0.21-1.73-0.62s-0.7-0.98-0.7-1.7c0-0.72,0.23-1.3,0.7-1.74c0.47-0.44,1.19-0.73,2.17-0.86l1.88-0.26v-0.15
			c0-0.39-0.12-0.69-0.37-0.89s-0.58-0.3-1.01-0.3c-0.32,0-0.67,0.05-1.05,0.17c-0.38,0.11-0.76,0.28-1.15,0.52l-0.79-1.33
			c0.5-0.31,1.01-0.54,1.53-0.69c0.52-0.15,1.07-0.22,1.67-0.22c1.11,0,1.94,0.27,2.48,0.8c0.54,0.54,0.81,1.35,0.81,2.42V82.42z
			 M83.47,79.29v-0.54l-1.46,0.19c-0.41,0.05-0.72,0.17-0.92,0.35c-0.2,0.18-0.3,0.43-0.3,0.74c0,0.28,0.1,0.52,0.29,0.7
			s0.46,0.27,0.79,0.27c0.47,0,0.85-0.16,1.15-0.48C83.32,80.19,83.47,79.79,83.47,79.29z"/>
		<path class="st1" d="M86.86,81.77l0.93-1.5c0.26,0.2,0.57,0.37,0.92,0.51c0.35,0.14,0.74,0.21,1.18,0.21
			c0.33,0,0.59-0.06,0.8-0.18c0.21-0.12,0.31-0.3,0.31-0.55c0-0.2-0.08-0.35-0.24-0.46c-0.16-0.12-0.46-0.22-0.89-0.32
			c-0.95-0.21-1.64-0.49-2.05-0.86c-0.42-0.37-0.62-0.88-0.62-1.54c0-0.77,0.31-1.39,0.92-1.85c0.61-0.46,1.37-0.69,2.26-0.69
			c0.46,0,0.89,0.06,1.31,0.18c0.41,0.12,0.8,0.3,1.16,0.53L92,76.7c-0.31-0.2-0.6-0.34-0.88-0.43c-0.27-0.09-0.55-0.14-0.84-0.14
			c-0.33,0-0.6,0.06-0.8,0.19s-0.3,0.29-0.3,0.49c0,0.22,0.09,0.38,0.27,0.49c0.18,0.1,0.53,0.21,1.05,0.32
			c0.88,0.19,1.52,0.47,1.91,0.85c0.39,0.38,0.58,0.9,0.58,1.55c0,0.78-0.29,1.4-0.88,1.87c-0.59,0.47-1.36,0.71-2.32,0.71
			c-0.53,0-1.04-0.07-1.52-0.2C87.8,82.26,87.33,82.05,86.86,81.77z"/>
		<path class="st1" d="M100.76,82.42h-2.13V81.3H98.6c-0.25,0.43-0.57,0.75-0.96,0.97c-0.39,0.22-0.82,0.33-1.31,0.33
			c-0.68,0-1.26-0.21-1.73-0.62s-0.7-0.98-0.7-1.7c0-0.72,0.23-1.3,0.7-1.74c0.47-0.44,1.19-0.73,2.17-0.86l1.88-0.26v-0.15
			c0-0.39-0.12-0.69-0.37-0.89s-0.58-0.3-1.01-0.3c-0.32,0-0.67,0.05-1.05,0.17c-0.38,0.11-0.76,0.28-1.15,0.52l-0.79-1.33
			c0.5-0.31,1.01-0.54,1.53-0.69c0.52-0.15,1.07-0.22,1.67-0.22c1.11,0,1.94,0.27,2.48,0.8c0.54,0.54,0.81,1.35,0.81,2.42V82.42z
			 M98.65,79.29v-0.54l-1.46,0.19c-0.41,0.05-0.72,0.17-0.92,0.35c-0.2,0.18-0.3,0.43-0.3,0.74c0,0.28,0.1,0.52,0.29,0.7
			s0.46,0.27,0.79,0.27c0.47,0,0.85-0.16,1.15-0.48C98.51,80.19,98.65,79.79,98.65,79.29z"/>
		<path class="st1" d="M112.06,81.33c-0.27,0.42-0.61,0.74-1.01,0.95s-0.87,0.32-1.4,0.32c-0.96,0-1.73-0.34-2.31-1.02
			c-0.59-0.68-0.88-1.63-0.88-2.84c0-1.27,0.32-2.29,0.97-3.06c0.65-0.76,1.49-1.15,2.54-1.15c0.49,0,0.92,0.09,1.27,0.27
			s0.63,0.45,0.83,0.82h0.03v-4.32h2.24v11.1h-2.24v-1.08H112.06z M108.74,78.67c0,0.71,0.15,1.25,0.45,1.63s0.71,0.57,1.24,0.57
			c0.51,0,0.92-0.2,1.23-0.6c0.32-0.4,0.47-0.92,0.47-1.57v-0.64c0-0.52-0.15-0.95-0.45-1.29c-0.3-0.34-0.7-0.51-1.18-0.51
			c-0.55,0-0.98,0.21-1.29,0.64C108.89,77.34,108.74,77.92,108.74,78.67z"/>
		<path class="st1" d="M123.29,79.2h-5.06c0.04,0.59,0.23,1.03,0.58,1.33c0.35,0.29,0.83,0.44,1.44,0.44c0.22,0,0.53-0.06,0.92-0.19
			c0.39-0.13,0.77-0.33,1.14-0.61l0.97,1.3c-0.52,0.39-1.05,0.68-1.6,0.86c-0.54,0.18-1.14,0.27-1.79,0.27
			c-1.23,0-2.18-0.34-2.86-1.03c-0.68-0.69-1.02-1.65-1.02-2.89c0-1.23,0.36-2.23,1.08-3s1.63-1.15,2.72-1.15
			c1.06,0,1.91,0.32,2.54,0.97s0.94,1.57,0.94,2.78V79.2z M121.21,77.79c0-0.61-0.12-1.04-0.36-1.32c-0.24-0.27-0.59-0.41-1.05-0.41
			c-0.41,0-0.75,0.16-1.04,0.46c-0.29,0.31-0.47,0.73-0.53,1.26H121.21z"/>
		<path class="st1" d="M124.84,82.42v-11.1h2.24v11.1H124.84z"/>
		<path class="st1" d="M141.47,81.87c-0.55,0.26-1.09,0.45-1.61,0.56c-0.52,0.12-1.09,0.17-1.69,0.17c-1.64,0-2.92-0.46-3.86-1.38
			c-0.94-0.92-1.4-2.23-1.4-3.93c0-1.6,0.51-2.93,1.53-3.98c1.02-1.05,2.37-1.58,4.04-1.58c0.57,0,1.08,0.04,1.53,0.13
			c0.45,0.09,0.91,0.22,1.38,0.41l-0.7,1.85c-0.35-0.15-0.7-0.25-1.04-0.31c-0.34-0.06-0.7-0.1-1.09-0.1
			c-0.88,0-1.64,0.31-2.28,0.92c-0.64,0.62-0.96,1.45-0.96,2.5c0,1.08,0.28,1.92,0.84,2.53c0.56,0.61,1.32,0.92,2.3,0.92
			c0.28,0,0.61-0.04,0.99-0.13c0.38-0.09,0.78-0.23,1.18-0.43L141.47,81.87z"/>
		<path class="st1" d="M149.23,82.42h-2.13V81.3h-0.03c-0.25,0.43-0.57,0.75-0.96,0.97c-0.39,0.22-0.82,0.33-1.31,0.33
			c-0.68,0-1.26-0.21-1.73-0.62s-0.7-0.98-0.7-1.7c0-0.72,0.23-1.3,0.7-1.74c0.47-0.44,1.19-0.73,2.17-0.86l1.88-0.26v-0.15
			c0-0.39-0.12-0.69-0.37-0.89s-0.58-0.3-1.01-0.3c-0.32,0-0.67,0.05-1.05,0.17c-0.38,0.11-0.76,0.28-1.15,0.52l-0.79-1.33
			c0.5-0.31,1.01-0.54,1.53-0.69c0.52-0.15,1.07-0.22,1.67-0.22c1.11,0,1.94,0.27,2.48,0.8c0.54,0.54,0.81,1.35,0.81,2.42V82.42z
			 M147.12,79.29v-0.54l-1.46,0.19c-0.41,0.05-0.71,0.17-0.92,0.35c-0.2,0.18-0.3,0.43-0.3,0.74c0,0.28,0.1,0.52,0.29,0.7
			c0.19,0.18,0.46,0.27,0.79,0.27c0.47,0,0.85-0.16,1.15-0.48C146.98,80.19,147.12,79.79,147.12,79.29z"/>
		<path class="st1" d="M155.97,76.6c-0.1-0.02-0.2-0.04-0.3-0.05c-0.1-0.01-0.22-0.02-0.34-0.02c-0.61,0-1.07,0.19-1.38,0.58
			c-0.31,0.39-0.47,0.93-0.47,1.62v3.69h-2.24v-7.68h2.24v1.44h0.03c0.18-0.52,0.44-0.91,0.78-1.17c0.34-0.26,0.76-0.39,1.25-0.39
			c0.12,0,0.23,0.01,0.34,0.02c0.11,0.01,0.22,0.03,0.34,0.06L155.97,76.6z"/>
		<path class="st1" d="M159.67,81.49h-0.03v4.37h-2.24V74.73h2.24v1.18h0.03c0.29-0.46,0.65-0.8,1.07-1.03
			c0.42-0.23,0.89-0.34,1.42-0.34c1,0,1.77,0.34,2.31,1.03c0.54,0.68,0.82,1.61,0.82,2.79c0,1.28-0.32,2.31-0.95,3.08
			c-0.63,0.78-1.48,1.17-2.53,1.17c-0.47,0-0.88-0.09-1.23-0.28C160.22,82.14,159.92,81.86,159.67,81.49z M159.61,78.35v0.67
			c0,0.54,0.15,0.99,0.44,1.34c0.29,0.35,0.68,0.52,1.16,0.52c0.56,0,1-0.22,1.31-0.65s0.47-1.05,0.47-1.85
			c0-0.7-0.14-1.22-0.41-1.58c-0.28-0.35-0.68-0.53-1.23-0.53c-0.52,0-0.94,0.19-1.26,0.57S159.61,77.73,159.61,78.35z"/>
		<path class="st1" d="M168.1,73.7c-0.39,0-0.71-0.12-0.96-0.36c-0.25-0.24-0.37-0.53-0.37-0.88c0-0.37,0.12-0.66,0.37-0.89
			c0.25-0.23,0.56-0.34,0.96-0.34c0.39,0,0.71,0.12,0.96,0.34c0.25,0.23,0.37,0.53,0.37,0.89c0,0.36-0.12,0.66-0.37,0.89
			C168.81,73.58,168.49,73.7,168.1,73.7z M169.2,82.42h-2.23v-7.68h2.23V82.42z"/>
		<path class="st1" d="M178.73,82.42h-2.23v-4.29c0-0.62-0.11-1.08-0.33-1.39c-0.22-0.31-0.56-0.46-1-0.46
			c-0.43,0-0.79,0.17-1.07,0.5c-0.28,0.33-0.43,0.75-0.43,1.27v4.38h-2.24v-7.68h2.24v1.22h0.03c0.28-0.47,0.63-0.83,1.04-1.06
			c0.41-0.23,0.89-0.35,1.43-0.35c0.85,0,1.49,0.26,1.92,0.79c0.43,0.53,0.64,1.32,0.64,2.37V82.42z"/>
		<path class="st1" d="M185.44,82.29c-0.23,0.1-0.49,0.18-0.78,0.23c-0.29,0.05-0.58,0.08-0.88,0.08c-0.82,0-1.44-0.2-1.86-0.6
			c-0.42-0.4-0.63-1-0.63-1.79v-3.82h-1.25v-1.66h1.25V73l2.23-0.64v2.37h1.75v1.66h-1.75v3.67c0,0.31,0.06,0.54,0.18,0.68
			c0.12,0.14,0.31,0.21,0.56,0.21c0.13,0,0.26-0.02,0.37-0.05c0.12-0.03,0.23-0.07,0.34-0.13L185.44,82.29z"/>
		<path class="st1" d="M193.6,79.2h-5.06c0.04,0.59,0.23,1.03,0.58,1.33c0.35,0.29,0.83,0.44,1.44,0.44c0.22,0,0.53-0.06,0.92-0.19
			c0.39-0.13,0.77-0.33,1.14-0.61l0.97,1.3c-0.52,0.39-1.05,0.68-1.6,0.86c-0.54,0.18-1.14,0.27-1.79,0.27
			c-1.23,0-2.18-0.34-2.86-1.03c-0.68-0.69-1.02-1.65-1.02-2.89c0-1.23,0.36-2.23,1.08-3c0.72-0.77,1.63-1.15,2.72-1.15
			c1.06,0,1.91,0.32,2.54,0.97c0.63,0.64,0.94,1.57,0.94,2.78V79.2z M191.52,77.79c0-0.61-0.12-1.04-0.36-1.32
			c-0.24-0.27-0.59-0.41-1.05-0.41c-0.41,0-0.75,0.16-1.04,0.46c-0.29,0.31-0.47,0.73-0.53,1.26H191.52z"/>
		<path class="st1" d="M199.88,76.6c-0.1-0.02-0.2-0.04-0.3-0.05c-0.1-0.01-0.22-0.02-0.34-0.02c-0.61,0-1.07,0.19-1.38,0.58
			c-0.31,0.39-0.47,0.93-0.47,1.62v3.69h-2.24v-7.68h2.24v1.44h0.03c0.18-0.52,0.44-0.91,0.78-1.17c0.34-0.26,0.76-0.39,1.25-0.39
			c0.12,0,0.23,0.01,0.34,0.02c0.11,0.01,0.22,0.03,0.34,0.06L199.88,76.6z"/>
		<path class="st1" d="M204.94,82.61c-1.26,0-2.26-0.36-2.99-1.08s-1.09-1.69-1.08-2.92c0-1.27,0.38-2.27,1.13-2.99
			c0.75-0.72,1.77-1.08,3.06-1.08c1.26,0,2.25,0.36,2.97,1.07c0.72,0.72,1.08,1.67,1.08,2.86c0,1.26-0.37,2.27-1.12,3.01
			C207.24,82.23,206.23,82.61,204.94,82.61z M205.02,80.88c0.6,0,1.04-0.2,1.34-0.59c0.3-0.4,0.45-0.98,0.45-1.77
			c0-0.74-0.15-1.3-0.45-1.68c-0.3-0.38-0.75-0.57-1.35-0.57c-0.59,0-1.04,0.2-1.37,0.61s-0.49,0.97-0.49,1.7
			c0,0.76,0.16,1.34,0.47,1.72C203.94,80.68,204.4,80.88,205.02,80.88z"/>
	</g>
</g>
</svg>
